<mxfile><diagram id="5UCM3oE3S1lQAsyfkURk" name="Страница 1"><mxGraphModel dx="564" dy="425" grid="1" gridSize="10" guides="1" tooltips="1" connect="1" arrows="1" fold="1" page="1" pageScale="1" pageWidth="827" pageHeight="1169" math="0" shadow="0"><root><mxCell id="0"/><mxCell id="1" parent="0"/><mxCell id="4" style="edgeStyle=none;html=1;exitX=0.5;exitY=1;exitDx=0;exitDy=0;entryX=0.5;entryY=0;entryDx=0;entryDy=0;" parent="1" source="2" target="3" edge="1"><mxGeometry relative="1" as="geometry"/></mxCell><mxCell id="2" value="Start" style="ellipse;whiteSpace=wrap;html=1;" parent="1" vertex="1"><mxGeometry x="170" y="10" width="120" height="80" as="geometry"/></mxCell><mxCell id="6" style="edgeStyle=none;html=1;exitX=0.5;exitY=1;exitDx=0;exitDy=0;entryX=0.5;entryY=0;entryDx=0;entryDy=0;" parent="1" source="3" target="5" edge="1"><mxGeometry relative="1" as="geometry"/></mxCell><mxCell id="3" value="SourceArray, N&lt;br&gt;count=0" style="shape=parallelogram;perimeter=parallelogramPerimeter;whiteSpace=wrap;html=1;fixedSize=1;" parent="1" vertex="1"><mxGeometry x="170" y="120" width="120" height="60" as="geometry"/></mxCell><mxCell id="8" style="edgeStyle=none;html=1;exitX=1;exitY=0.5;exitDx=0;exitDy=0;" parent="1" source="5" edge="1"><mxGeometry relative="1" as="geometry"><mxPoint x="350" y="260" as="targetPoint"/></mxGeometry></mxCell><mxCell id="11" style="edgeStyle=none;html=1;exitX=0.5;exitY=1;exitDx=0;exitDy=0;entryX=0.5;entryY=0;entryDx=0;entryDy=0;" parent="1" source="5" target="10" edge="1"><mxGeometry relative="1" as="geometry"/></mxCell><mxCell id="5" value="for (i=0; i&amp;lt; N; i++)" style="shape=hexagon;perimeter=hexagonPerimeter2;whiteSpace=wrap;html=1;fixedSize=1;" parent="1" vertex="1"><mxGeometry x="170" y="220" width="120" height="80" as="geometry"/></mxCell><mxCell id="7" value="print (res[count])" style="shape=document;whiteSpace=wrap;html=1;boundedLbl=1;" parent="1" vertex="1"><mxGeometry x="350" y="220" width="120" height="80" as="geometry"/></mxCell><mxCell id="9" value="No" style="text;html=1;align=center;verticalAlign=middle;resizable=0;points=[];autosize=1;strokeColor=none;fillColor=none;" parent="1" vertex="1"><mxGeometry x="295" y="240" width="30" height="20" as="geometry"/></mxCell><mxCell id="14" style="edgeStyle=none;html=1;exitX=0.5;exitY=1;exitDx=0;exitDy=0;entryX=0.5;entryY=0;entryDx=0;entryDy=0;" parent="1" source="10" target="13" edge="1"><mxGeometry relative="1" as="geometry"/></mxCell><mxCell id="24" style="edgeStyle=orthogonalEdgeStyle;html=1;exitX=0;exitY=0.5;exitDx=0;exitDy=0;" parent="1" source="10" edge="1"><mxGeometry relative="1" as="geometry"><mxPoint x="110" y="260" as="targetPoint"/></mxGeometry></mxCell><mxCell id="10" value="N[i]&amp;lt;=3" style="rhombus;whiteSpace=wrap;html=1;" parent="1" vertex="1"><mxGeometry x="190" y="350" width="80" height="80" as="geometry"/></mxCell><mxCell id="12" value="Yes" style="text;html=1;align=center;verticalAlign=middle;resizable=0;points=[];autosize=1;strokeColor=none;fillColor=none;" parent="1" vertex="1"><mxGeometry x="220" y="310" width="40" height="20" as="geometry"/></mxCell><mxCell id="23" style="edgeStyle=orthogonalEdgeStyle;html=1;exitX=0;exitY=0.5;exitDx=0;exitDy=0;entryX=0;entryY=0.5;entryDx=0;entryDy=0;" parent="1" source="13" target="5" edge="1"><mxGeometry relative="1" as="geometry"><Array as="points"><mxPoint x="40" y="510"/><mxPoint x="40" y="260"/></Array></mxGeometry></mxCell><mxCell id="13" value="res[count]=FinalArray&lt;br&gt;count=count+1" style="rounded=0;whiteSpace=wrap;html=1;" parent="1" vertex="1"><mxGeometry x="155" y="480" width="150" height="60" as="geometry"/></mxCell><mxCell id="20" value="Yes" style="text;html=1;align=center;verticalAlign=middle;resizable=0;points=[];autosize=1;strokeColor=none;fillColor=none;" parent="1" vertex="1"><mxGeometry x="220" y="430" width="40" height="20" as="geometry"/></mxCell><mxCell id="22" value="No" style="text;html=1;align=center;verticalAlign=middle;resizable=0;points=[];autosize=1;strokeColor=none;fillColor=none;" parent="1" vertex="1"><mxGeometry x="135" y="370" width="30" height="20" as="geometry"/></mxCell></root></mxGraphModel></diagram></mxfile>